<svg width="42" height="37" viewBox="0 0 42 37" fill="none" xmlns="http://www.w3.org/2000/svg">
  <title>Redpanda</title>
  <path d="M41.3733 3.50035L36.9192 0.928711L27.4043 6.422V6.58821L20.6866 2.70981L13.969 6.58821V6.422L4.45409 0.928711L0 3.50035V17.7559V24.6789L20.6866 36.6222L41.3733 24.6789V17.7559V3.50035ZM30.1083 7.98147L36.9206 4.04901L38.6719 5.05982V13.0734L30.1097 8.13012V7.98282L30.1083 7.98147ZM2.70408 5.05982L4.45544 4.04901L11.2677 7.98147V8.12877L2.70543 13.0721V5.05847L2.70408 5.05982ZM26.1002 30.3749L20.688 33.4992L15.2758 30.3749V25.2235L20.688 22.0991L26.1002 25.2235V30.3749ZM38.6706 23.1181L33.2394 26.2546V19.937L20.688 12.691L8.13655 19.937V26.2546L2.70408 23.1181V16.214L20.688 5.83145L38.6719 16.214V23.1181H38.6706Z" fill="#E2401B"/>
</svg>
