<svg xmlns="http://www.w3.org/2000/svg" width="1500" height="860" viewBox="0 0 1500 860" role="img" aria-labelledby="title desc">
  <title id="title">Data Engineering Lab 2 System Design</title>
  <desc id="desc">Local batch and streaming recommendation pipeline with MySQL, PySpark, MinIO, PostgreSQL pgvector, FastAPI, Redpanda, event producer, and stream processor.</desc>
  <defs>
    <marker id="arrow" viewBox="0 0 10 10" refX="9" refY="5" markerWidth="8" markerHeight="8" orient="auto-start-reverse">
      <path d="M 0 0 L 10 5 L 0 10 z" fill="#2f3a4a"/>
    </marker>
    <filter id="external-shadow" x="-15%" y="-20%" width="130%" height="150%">
      <feDropShadow dx="0" dy="8" stdDeviation="6" flood-color="#0f766e" flood-opacity="0.18"/>
    </filter>
    <symbol id="icon-mysql" viewBox="0 0 48 48">
      <rect x="1" y="1" width="46" height="46" rx="11" fill="#eef9fb" stroke="#b7d9df"/>
      <path d="M11 30 C18 19, 30 16, 39 19 C34 21, 30 23, 27 27 C24 31, 18 33, 11 30 Z" fill="#00758f"/>
      <path d="M27 21 C33 15, 40 14, 44 18 C38 18, 34 20, 30 24 Z" fill="#f29111"/>
      <text x="24" y="39" font-family="Arial, sans-serif" font-weight="700" font-size="9" text-anchor="middle" fill="#00758f">MySQL</text>
    </symbol>
    <symbol id="icon-spark" viewBox="0 0 48 48">
      <rect x="1" y="1" width="46" height="46" rx="11" fill="#fff3eb" stroke="#f4c2a4"/>
      <path d="M24 7 L28 19 L41 15 L31 24 L39 35 L27 30 L24 43 L20 30 L9 35 L17 24 L7 15 L20 19 Z" fill="#e25a1c"/>
      <circle cx="24" cy="24" r="5" fill="#ffffff"/>
      <circle cx="24" cy="24" r="2.5" fill="#e25a1c"/>
    </symbol>
    <symbol id="icon-minio" viewBox="0 0 48 48">
      <rect x="1" y="1" width="46" height="46" rx="11" fill="#fff1f4" stroke="#efb7c1"/>
      <path d="M24 8 L33 14 L24 20 L15 14 Z" fill="#c72e49"/>
      <path d="M15 18 L24 24 L24 40 L15 34 Z" fill="#e64761"/>
      <path d="M33 18 L24 24 L24 40 L33 34 Z" fill="#a51f38"/>
      <path d="M18 14 L24 10 L30 14 L24 18 Z" fill="#ffffff" opacity="0.75"/>
    </symbol>
    <symbol id="icon-ml" viewBox="0 0 48 48">
      <rect x="1" y="1" width="46" height="46" rx="11" fill="#f4efff" stroke="#c7b6ee"/>
      <circle cx="14" cy="16" r="4" fill="#6d4bc2"/>
      <circle cx="14" cy="32" r="4" fill="#6d4bc2"/>
      <circle cx="25" cy="24" r="4" fill="#8d6ee8"/>
      <circle cx="36" cy="16" r="4" fill="#6d4bc2"/>
      <circle cx="36" cy="32" r="4" fill="#6d4bc2"/>
      <path d="M18 16 L21 22 M18 32 L21 26 M29 22 L32 17 M29 26 L32 31" stroke="#6d4bc2" stroke-width="2"/>
    </symbol>
    <symbol id="icon-python" viewBox="0 0 48 48">
      <rect x="1" y="1" width="46" height="46" rx="11" fill="#f1f7ff" stroke="#b9cce5"/>
      <path d="M24 7 C14 7, 13 12, 13 18 L13 22 L25 22 L25 25 L9 25 C6 25, 4 28, 4 32 C4 36, 7 39, 11 39 L17 39 L17 34 C17 28, 21 26, 27 26 L35 26 L35 14 C35 10, 31 7, 24 7 Z" fill="#3776ab"/>
      <path d="M24 41 C34 41, 35 36, 35 30 L35 26 L23 26 L23 23 L39 23 C42 23, 44 20, 44 16 C44 12, 41 9, 37 9 L31 9 L31 14 C31 20, 27 22, 21 22 L13 22 L13 34 C13 38, 17 41, 24 41 Z" fill="#ffd43b"/>
      <circle cx="20" cy="14" r="1.8" fill="#ffffff"/>
      <circle cx="28" cy="34" r="1.8" fill="#4b4b4b"/>
    </symbol>
    <symbol id="icon-redpanda" viewBox="0 0 48 48">
      <rect x="1" y="1" width="46" height="46" rx="11" fill="#fff0ed" stroke="#efb5aa"/>
      <circle cx="24" cy="24" r="14" fill="#d93025"/>
      <circle cx="16" cy="13" r="6" fill="#a82018"/>
      <circle cx="32" cy="13" r="6" fill="#a82018"/>
      <path d="M14 25 C18 34, 30 34, 34 25 C31 29, 17 29, 14 25 Z" fill="#ffffff"/>
      <circle cx="19" cy="22" r="2" fill="#ffffff"/>
      <circle cx="29" cy="22" r="2" fill="#ffffff"/>
      <path d="M24 24 L21 28 L27 28 Z" fill="#202020"/>
    </symbol>
    <symbol id="icon-fastapi" viewBox="0 0 48 48">
      <rect x="1" y="1" width="46" height="46" rx="11" fill="#ecfffb" stroke="#a7ded4"/>
      <circle cx="24" cy="24" r="17" fill="#009688"/>
      <path d="M27 7 L13 27 L23 27 L20 41 L35 20 L25 20 Z" fill="#ffffff"/>
    </symbol>
    <symbol id="icon-postgres" viewBox="0 0 48 48">
      <rect x="1" y="1" width="46" height="46" rx="11" fill="#eef5fb" stroke="#b6cce0"/>
      <path d="M15 35 C9 29, 9 16, 18 10 C27 4, 39 10, 39 22 C39 32, 31 39, 22 38 C19 38, 17 37, 15 35 Z" fill="#336791"/>
      <path d="M25 16 C31 17, 34 21, 33 27 C32 33, 25 34, 23 29 C21 24, 27 24, 27 20 C27 18, 26 17, 25 16 Z" fill="#ffffff" opacity="0.9"/>
      <circle cx="18" cy="19" r="2" fill="#ffffff"/>
      <path d="M17 34 C20 29, 23 28, 29 30" stroke="#ffffff" stroke-width="2" fill="none"/>
    </symbol>
    <style>
      .bg { fill: #f7f9fc; }
      .band { fill: #eef3f8; stroke: #ccd7e4; stroke-width: 1.5; }
      .service { fill: #ffffff; stroke: #4d5f75; stroke-width: 1.8; }
      .storage { fill: #fff8e8; stroke: #a87920; stroke-width: 1.8; }
      .compute { fill: #ecf7ff; stroke: #2d6f9f; stroke-width: 1.8; }
      .stream { fill: #eefbf3; stroke: #2d7a4d; stroke-width: 1.8; }
      .api { fill: #f3efff; stroke: #6b55a3; stroke-width: 1.8; }
      .external { fill: #f0fdfa; stroke: #0f766e; stroke-width: 1.8; filter: url(#external-shadow); }
      .title { font: 700 28px Arial, sans-serif; fill: #172033; }
      .section-title { font: 700 18px Arial, sans-serif; fill: #263244; }
      .label { font: 700 15px Arial, sans-serif; fill: #172033; }
      .small { font: 12px Arial, sans-serif; fill: #4a5568; }
      .tiny { font: 11px Arial, sans-serif; fill: #566174; }
      .icon-text { font: 700 11px Arial, sans-serif; fill: #ffffff; text-anchor: middle; dominant-baseline: central; }
      .icon-subtle { font: 700 9px Arial, sans-serif; fill: #ffffff; text-anchor: middle; dominant-baseline: central; }
      .arrow { fill: none; stroke: #2f3a4a; stroke-width: 2; marker-end: url(#arrow); }
      .arrow-soft { fill: none; stroke: #66758a; stroke-width: 1.8; stroke-dasharray: 6 5; marker-end: url(#arrow); }
      .icon-bg { fill: #f7fafc; stroke: #cbd7e3; stroke-width: 1.2; }
    </style>
  </defs>

  <rect class="bg" width="1500" height="860"/>
  <text class="title" x="50" y="48">Data Engineering Lab 2: Local Batch and Streaming Recommendation System</text>
  <text class="small" x="50" y="73">Every component runs locally with Docker and Docker Compose.</text>

  <rect class="band" x="40" y="105" width="1420" height="250" rx="10"/>
  <text class="section-title" x="65" y="137">Batch Pipeline</text>

  <rect class="service" x="70" y="175" width="200" height="110" rx="8"/>
  <rect class="icon-bg" x="82" y="193" width="46" height="46" rx="10"/>
  <svg x="91" y="202" width="28" height="28" viewBox="0 0 24 24" aria-hidden="true" fill="#4479A1"><path d="M16.405 5.501c-.115 0-.193.014-.274.033v.013h.014c.054.104.146.18.214.273.054.107.1.214.154.32l.014-.015c.094-.066.14-.172.14-.333-.04-.047-.046-.094-.08-.14-.04-.067-.126-.1-.18-.153zM5.77 18.695h-.927a50.854 50.854 0 00-.27-4.41h-.008l-1.41 4.41H2.45l-1.4-4.41h-.01a72.892 72.892 0 00-.195 4.41H0c.055-1.966.192-3.81.41-5.53h1.15l1.335 4.064h.008l1.347-4.064h1.095c.242 2.015.384 3.86.428 5.53zm4.017-4.08c-.378 2.045-.876 3.533-1.492 4.46-.482.716-1.01 1.073-1.583 1.073-.153 0-.34-.046-.566-.138v-.494c.11.017.24.026.386.026.268 0 .483-.075.647-.222.197-.18.295-.382.295-.605 0-.155-.077-.47-.23-.944L6.23 14.615h.91l.727 2.36c.164.536.233.91.205 1.123.4-1.064.678-2.227.835-3.483zm12.325 4.08h-2.63v-5.53h.885v4.85h1.745zm-3.32.135l-1.016-.5c.09-.076.177-.158.255-.25.433-.506.648-1.258.648-2.253 0-1.83-.718-2.746-2.155-2.746-.704 0-1.254.232-1.65.697-.43.508-.646 1.256-.646 2.245 0 .972.19 1.686.574 2.14.35.41.877.615 1.583.615.264 0 .506-.033.725-.098l1.325.772.36-.622zM15.5 17.588c-.225-.36-.337-.94-.337-1.736 0-1.393.424-2.09 1.27-2.09.443 0 .77.167.977.5.224.362.336.936.336 1.723 0 1.404-.424 2.108-1.27 2.108-.445 0-.77-.167-.978-.5zm-1.658-.425c0 .47-.172.856-.516 1.156-.344.3-.803.45-1.384.45-.543 0-1.064-.172-1.573-.515l.237-.476c.438.22.833.328 1.19.328.332 0 .593-.073.783-.22a.754.754 0 00.3-.615c0-.33-.23-.61-.648-.845-.388-.213-1.163-.657-1.163-.657-.422-.307-.632-.636-.632-1.177 0-.45.157-.81.47-1.085.315-.278.72-.415 1.22-.415.512 0 .98.136 1.4.41l-.213.476a2.726 2.726 0 00-1.064-.23c-.283 0-.502.068-.654.206a.685.685 0 00-.248.524c0 .328.234.61.666.85.393.215 1.187.67 1.187.67.433.305.648.63.648 1.168zm9.382-5.852c-.535-.014-.95.04-1.297.188-.1.04-.26.04-.274.167.055.053.063.14.11.214.08.134.218.313.346.407.14.11.28.216.427.31.26.16.555.255.81.416.145.094.293.213.44.313.073.05.12.14.214.172v-.02c-.046-.06-.06-.147-.105-.214-.067-.067-.134-.127-.2-.193a3.223 3.223 0 00-.695-.675c-.214-.146-.682-.35-.77-.595l-.013-.014c.146-.013.32-.066.46-.106.227-.06.435-.047.67-.106.106-.027.213-.06.32-.094v-.06c-.12-.12-.21-.283-.334-.395a8.867 8.867 0 00-1.104-.823c-.21-.134-.476-.22-.697-.334-.08-.04-.214-.06-.26-.127-.12-.146-.19-.34-.275-.514a17.69 17.69 0 01-.547-1.163c-.12-.262-.193-.523-.34-.763-.69-1.137-1.437-1.826-2.586-2.5-.247-.14-.543-.2-.856-.274-.167-.008-.334-.02-.5-.027-.11-.047-.216-.174-.31-.235-.38-.24-1.364-.76-1.644-.072-.18.434.267.862.422 1.082.115.153.26.328.34.5.047.116.06.235.107.356.106.294.207.622.347.897.073.14.153.287.247.413.054.073.146.107.167.227-.094.136-.1.334-.154.5-.24.757-.146 1.693.194 2.25.107.166.362.534.703.393.3-.12.234-.5.32-.835.02-.08.007-.133.048-.187v.015c.094.188.188.367.274.555.206.328.566.668.867.895.16.12.287.328.487.402v-.02h-.015c-.043-.058-.1-.086-.154-.133a3.445 3.445 0 01-.35-.4 8.76 8.76 0 01-.747-1.218c-.11-.21-.202-.436-.29-.643-.04-.08-.04-.2-.107-.24-.1.146-.247.273-.32.453-.127.288-.14.642-.188 1.01-.027.007-.014 0-.027.014-.214-.052-.287-.274-.367-.46-.2-.475-.233-1.238-.06-1.785.047-.14.247-.582.167-.716-.042-.127-.174-.2-.247-.303a2.478 2.478 0 01-.24-.427c-.16-.374-.24-.788-.414-1.162-.08-.173-.22-.354-.334-.513-.127-.18-.267-.307-.368-.52-.033-.073-.08-.194-.027-.274.014-.054.042-.075.094-.09.088-.072.335.022.422.062.247.1.455.194.662.334.094.066.195.193.315.226h.14c.214.047.455.014.655.073.355.114.675.28.962.46a5.953 5.953 0 012.085 2.286c.08.154.115.295.188.455.14.33.313.663.455.982.14.315.275.636.476.897.1.14.502.213.682.286.133.06.34.115.46.188.23.14.454.3.67.454.11.076.443.243.463.378z"/></svg>
  <text class="label" x="135" y="210">MySQL Source DB</text>
  <text class="small" x="135" y="234">classicmodels</text>
  <text class="tiny" x="135" y="254">customers + products</text>
  <text class="tiny" x="135" y="272">ratings source table</text>

  <rect class="compute" x="400" y="175" width="220" height="110" rx="8"/>
  <rect class="icon-bg" x="412" y="193" width="46" height="46" rx="10"/>
  <svg x="421" y="202" width="28" height="28" viewBox="0 0 24 24" aria-hidden="true" fill="#E25A1C"><path d="M10.812 0c-.425.013-.845.215-1.196.605a3.593 3.593 0 00-.493.722c-.355.667-.425 1.415-.556 2.143a551.9 551.9 0 00-.726 4.087c-.027.16-.096.227-.244.273C5.83 8.386 4.06 8.94 2.3 9.514c-.387.125-.773.289-1.114.506-1.042.665-1.196 1.753-.415 2.71.346.422.79.715 1.284.936 1.1.49 2.202.976 3.3 1.47.019.01.036.013.053.019h-.004l1.306.535c0 .023.002.045 0 .073-.2 2.03-.39 4.063-.58 6.095-.04.419-.012.831.134 1.23.317.87 1.065 1.148 1.881.701.372-.204.666-.497.937-.818 1.372-1.623 2.746-3.244 4.113-4.872.111-.133.205-.15.363-.098.349.117.697.231 1.045.347h.001c.02.012.045.02.073.03l.142.042c1.248.416 2.68.775 3.929 1.19.4.132.622.164 1.045.098.311-.048.592-.062.828-.236.602-.33.995-.957.988-1.682-.005-.427-.154-.813-.35-1.186-.82-1.556-1.637-3.113-2.461-4.666-.078-.148-.076-.243.037-.375 1.381-1.615 2.756-3.236 4.133-4.855.272-.32.513-.658.653-1.058.308-.878-.09-1.57-1-1.741a2.783 2.783 0 00-1.235.069c-1.974.521-3.947 1.041-5.918 1.57-.175.047-.26.015-.355-.144a353.08 353.08 0 00-2.421-4.018 4.61 4.61 0 00-.652-.849c-.371-.37-.802-.549-1.227-.536zm.172 3.703a.592.592 0 01.189.211c.87 1.446 1.742 2.89 2.609 4.338.07.118.135.16.277.121 1.525-.41 3.052-.813 4.579-1.217.367-.098.735-.193 1.103-.289a.399.399 0 01-.1.2c-1.259 1.48-2.516 2.962-3.779 4.438-.11.13-.12.22-.04.37.937 1.803 1.768 3.309 2.498 4.76l-3.696-1.019c-.538-.18-1.077-.358-1.615-.539-.163-.055-.25-.03-.36.1-1.248 1.488-2.504 2.97-3.759 4.454a.398.398 0 01-.18.132c.035-.378.068-.757.104-1.136.149-1.572.297-3.144.451-4.716-.03-.318.117-.405-.322-.545-1.493-.593-3.346-1.321-4.816-1.905a.595.595 0 01.24-.134c1.797-.57 3.595-1.14 5.394-1.705.127-.04.199-.092.211-.233.013-.148.05-.294.076-.441.241-1.363.483-2.726.726-4.088.068-.386.14-.771.21-1.157z"/></svg>
  <text class="label" x="470" y="210">PySpark ETL</text>
  <text class="small" x="470" y="234">etl/run_etl.py</text>
  <text class="tiny" x="470" y="254">joins source tables</text>
  <text class="tiny" x="470" y="272">writes Parquet output</text>

  <rect class="storage" x="780" y="175" width="250" height="110" rx="8"/>
  <rect class="icon-bg" x="792" y="193" width="46" height="46" rx="10"/>
  <svg x="801" y="202" width="28" height="28" viewBox="0 0 24 24" aria-hidden="true" fill="#C72E49"><path d="M13.2072.006c-.6216-.0478-1.2.1943-1.6211.582a2.15 2.15 0 0 0-.0938 3.0352l3.4082 3.5507a3.042 3.042 0 0 1-.664 4.6875l-.463.2383V7.2853a15.4198 15.4198 0 0 0-8.0174 10.4862v.0176l6.5487-3.3281v7.621L13.7794 24V13.6817l.8965-.4629a4.4432 4.4432 0 0 0 1.2207-7.0292l-3.371-3.5254a.7489.7489 0 0 1 .037-1.0547.7522.7522 0 0 1 1.0567.0371l.4668.4863-.006.0059 4.0704 4.2441a.0566.0566 0 0 0 .082 0 .06.06 0 0 0 0-.0703l-3.1406-5.1425-.1484.1425.1484-.1445C14.4945.3926 13.8287.0538 13.2072.006Zm-.9024 9.8652v2.9941l-4.1523 2.1484a13.9787 13.9787 0 0 1 2.7676-3.9277 14.1784 14.1784 0 0 1 1.3847-1.2148z"/></svg>
  <text class="label" x="850" y="210">MinIO Data Lake</text>
  <text class="small" x="850" y="234">bucket: classicmodels-lab2</text>
  <text class="tiny" x="850" y="254">ratings_ml_training/</text>
  <text class="tiny" x="850" y="272">customerNumber=&lt;number&gt;/</text>

  <rect class="storage" x="1125" y="158" width="310" height="160" rx="8"/>
  <text class="label" x="1145" y="185">Recommender Model</text>
  <text class="tiny" x="1145" y="205">pre-trained content-based model</text>
  <rect x="1148" y="225" width="58" height="16" fill="#ffffff" stroke="#4d5f75" stroke-width="1"/>
  <line x1="1158" y1="225" x2="1158" y2="241" stroke="#4d5f75" stroke-width="0.8"/>
  <line x1="1168" y1="225" x2="1168" y2="241" stroke="#4d5f75" stroke-width="0.8"/>
  <line x1="1178" y1="225" x2="1178" y2="241" stroke="#4d5f75" stroke-width="0.8"/>
  <line x1="1188" y1="225" x2="1188" y2="241" stroke="#4d5f75" stroke-width="0.8"/>
  <text class="tiny" x="1148" y="255">user features</text>
  <rect x="1148" y="272" width="58" height="16" fill="#ffffff" stroke="#4d5f75" stroke-width="1"/>
  <line x1="1162" y1="272" x2="1162" y2="288" stroke="#4d5f75" stroke-width="0.8"/>
  <line x1="1176" y1="272" x2="1176" y2="288" stroke="#4d5f75" stroke-width="0.8"/>
  <line x1="1190" y1="272" x2="1190" y2="288" stroke="#4d5f75" stroke-width="0.8"/>
  <text class="tiny" x="1148" y="302">product features</text>
  <rect x="1230" y="220" width="70" height="28" rx="6" fill="#ffffff" stroke="#4d5f75" stroke-width="1"/>
  <text class="tiny" x="1242" y="237">MLP</text>
  <rect x="1230" y="267" width="70" height="28" rx="6" fill="#ffffff" stroke="#4d5f75" stroke-width="1"/>
  <text class="tiny" x="1242" y="284">MLP</text>
  <rect x="1320" y="225" width="78" height="16" fill="#ffffff" stroke="#4d5f75" stroke-width="1"/>
  <line x1="1330" y1="225" x2="1330" y2="241" stroke="#4d5f75" stroke-width="0.8"/>
  <line x1="1340" y1="225" x2="1340" y2="241" stroke="#4d5f75" stroke-width="0.8"/>
  <line x1="1350" y1="225" x2="1350" y2="241" stroke="#4d5f75" stroke-width="0.8"/>
  <line x1="1360" y1="225" x2="1360" y2="241" stroke="#4d5f75" stroke-width="0.8"/>
  <line x1="1370" y1="225" x2="1370" y2="241" stroke="#4d5f75" stroke-width="0.8"/>
  <line x1="1380" y1="225" x2="1380" y2="241" stroke="#4d5f75" stroke-width="0.8"/>
  <text class="tiny" x="1320" y="255">user embedding</text>
  <rect x="1320" y="272" width="78" height="16" fill="#ffffff" stroke="#4d5f75" stroke-width="1"/>
  <line x1="1330" y1="272" x2="1330" y2="288" stroke="#4d5f75" stroke-width="0.8"/>
  <line x1="1340" y1="272" x2="1340" y2="288" stroke="#4d5f75" stroke-width="0.8"/>
  <line x1="1350" y1="272" x2="1350" y2="288" stroke="#4d5f75" stroke-width="0.8"/>
  <line x1="1360" y1="272" x2="1360" y2="288" stroke="#4d5f75" stroke-width="0.8"/>
  <line x1="1370" y1="272" x2="1370" y2="288" stroke="#4d5f75" stroke-width="0.8"/>
  <line x1="1380" y1="272" x2="1380" y2="288" stroke="#4d5f75" stroke-width="0.8"/>
  <text class="tiny" x="1320" y="302">product embedding</text>
  <path class="arrow" d="M 1208 233 L 1226 233"/>
  <path class="arrow" d="M 1208 280 L 1226 280"/>
  <path class="arrow" d="M 1302 233 L 1316 233"/>
  <path class="arrow" d="M 1302 280 L 1316 280"/>

  <path class="arrow" d="M 270 230 L 395 230"/>
  <path class="arrow" d="M 620 230 L 775 230"/>
  <path class="arrow-soft" d="M 1030 230 L 1120 230"/>
  <text class="tiny" x="304" y="202">JDBC read</text>
  <text class="tiny" x="640" y="202">write Parquet training files</text>
  <text class="tiny" x="1050" y="202">training data</text>

  <rect class="band" x="40" y="390" width="1420" height="395" rx="10"/>
  <text class="section-title" x="65" y="422">Streaming Recommendation Pipeline</text>

  <rect class="external" x="410" y="350" width="220" height="70" rx="8"/>
  <rect class="icon-bg" x="425" y="367" width="42" height="36" rx="8"/>
  <rect x="434" y="376" width="24" height="16" rx="2" fill="none" stroke="#0f766e" stroke-width="2"/>
  <line x1="441" y1="397" x2="451" y2="397" stroke="#0f766e" stroke-width="2"/>
  <text class="label" x="482" y="378">Web/App</text>
  <text class="small" x="482" y="400">product experience</text>

  <rect class="service" x="70" y="465" width="215" height="110" rx="8"/>
  <rect class="icon-bg" x="82" y="483" width="46" height="46" rx="10"/>
  <svg x="91" y="492" width="28" height="28" viewBox="0 0 24 24" aria-hidden="true" fill="#3776AB"><path d="M14.25.18l.9.2.73.26.59.3.45.32.34.34.25.34.16.33.1.3.04.26.02.2-.01.13V8.5l-.05.63-.13.55-.21.46-.26.38-.3.31-.33.25-.35.19-.35.14-.33.1-.3.07-.26.04-.21.02H8.77l-.69.05-.59.14-.5.22-.41.27-.33.32-.27.35-.2.36-.15.37-.1.35-.07.32-.04.27-.02.21v3.06H3.17l-.21-.03-.28-.07-.32-.12-.35-.18-.36-.26-.36-.36-.35-.46-.32-.59-.28-.73-.21-.88-.14-1.05-.05-1.23.06-1.22.16-1.04.24-.87.32-.71.36-.57.4-.44.42-.33.42-.24.4-.16.36-.1.32-.05.24-.01h.16l.06.01h8.16v-.83H6.18l-.01-2.75-.02-.37.05-.34.11-.31.17-.28.25-.26.31-.23.38-.2.44-.18.51-.15.58-.12.64-.1.71-.06.77-.04.84-.02 1.27.05zm-6.3 1.98l-.23.33-.08.41.08.41.23.34.33.22.41.09.41-.09.33-.22.23-.34.08-.41-.08-.41-.23-.33-.33-.22-.41-.09-.41.09zm13.09 3.95l.28.06.32.12.35.18.36.27.36.35.35.47.32.59.28.73.21.88.14 1.04.05 1.23-.06 1.23-.16 1.04-.24.86-.32.71-.36.57-.4.45-.42.33-.42.24-.4.16-.36.09-.32.05-.24.02-.16-.01h-8.22v.82h5.84l.01 2.76.02.36-.05.34-.11.31-.17.29-.25.25-.31.24-.38.2-.44.17-.51.15-.58.13-.64.09-.71.07-.77.04-.84.01-1.27-.04-1.07-.14-.9-.2-.73-.25-.59-.3-.45-.33-.34-.34-.25-.34-.16-.33-.1-.3-.04-.25-.02-.2.01-.13v-5.34l.05-.64.13-.54.21-.46.26-.38.3-.32.33-.24.35-.2.35-.14.33-.1.3-.06.26-.04.21-.02.13-.01h5.84l.69-.05.59-.14.5-.21.41-.28.33-.32.27-.35.2-.36.15-.36.1-.35.07-.32.04-.28.02-.21V6.07h2.09l.14.01zm-6.47 14.25l-.23.33-.08.41.08.41.23.33.33.23.41.08.41-.08.33-.23.23-.33.08-.41-.08-.41-.23-.33-.33-.23-.41-.08-.41.08z"/></svg>
  <text class="label" x="140" y="500">Event Producer</text>
  <text class="small" x="140" y="524">FastAPI control API</text>
  <text class="tiny" x="140" y="544">reads real catalog data</text>
  <text class="tiny" x="140" y="562">http://localhost:8010</text>

  <rect class="stream" x="400" y="465" width="215" height="110" rx="8"/>
  <rect class="icon-bg" x="412" y="483" width="46" height="46" rx="10"/>
  <svg x="420" y="490" width="30" height="30" viewBox="0 0 42 37" aria-hidden="true" fill="none"><path d="M41.3733 3.50035L36.9192 0.928711L27.4043 6.422V6.58821L20.6866 2.70981L13.969 6.58821V6.422L4.45409 0.928711L0 3.50035V17.7559V24.6789L20.6866 36.6222L41.3733 24.6789V17.7559V3.50035ZM30.1083 7.98147L36.9206 4.04901L38.6719 5.05982V13.0734L30.1097 8.13012V7.98282L30.1083 7.98147ZM2.70408 5.05982L4.45544 4.04901L11.2677 7.98147V8.12877L2.70543 13.0721V5.05847L2.70408 5.05982ZM26.1002 30.3749L20.688 33.4992L15.2758 30.3749V25.2235L20.688 22.0991L26.1002 25.2235V30.3749ZM38.6706 23.1181L33.2394 26.2546V19.937L20.688 12.691L8.13655 19.937V26.2546L2.70408 23.1181V16.214L20.688 5.83145L38.6719 16.214V23.1181H38.6706Z" fill="#E2401B"/></svg>
  <text class="label" x="470" y="500">Redpanda</text>
  <text class="small" x="470" y="524">Kafka-compatible broker</text>
  <text class="tiny" x="470" y="544">topic: user-activity</text>
  <text class="tiny" x="470" y="562">localhost:19092</text>

  <rect class="compute" x="740" y="465" width="225" height="110" rx="8"/>
  <rect class="icon-bg" x="752" y="483" width="46" height="46" rx="10"/>
  <svg x="761" y="492" width="28" height="28" viewBox="0 0 24 24" aria-hidden="true" fill="#3776AB"><path d="M14.25.18l.9.2.73.26.59.3.45.32.34.34.25.34.16.33.1.3.04.26.02.2-.01.13V8.5l-.05.63-.13.55-.21.46-.26.38-.3.31-.33.25-.35.19-.35.14-.33.1-.3.07-.26.04-.21.02H8.77l-.69.05-.59.14-.5.22-.41.27-.33.32-.27.35-.2.36-.15.37-.1.35-.07.32-.04.27-.02.21v3.06H3.17l-.21-.03-.28-.07-.32-.12-.35-.18-.36-.26-.36-.36-.35-.46-.32-.59-.28-.73-.21-.88-.14-1.05-.05-1.23.06-1.22.16-1.04.24-.87.32-.71.36-.57.4-.44.42-.33.42-.24.4-.16.36-.1.32-.05.24-.01h.16l.06.01h8.16v-.83H6.18l-.01-2.75-.02-.37.05-.34.11-.31.17-.28.25-.26.31-.23.38-.2.44-.18.51-.15.58-.12.64-.1.71-.06.77-.04.84-.02 1.27.05zm-6.3 1.98l-.23.33-.08.41.08.41.23.34.33.22.41.09.41-.09.33-.22.23-.34.08-.41-.08-.41-.23-.33-.33-.22-.41-.09-.41.09zm13.09 3.95l.28.06.32.12.35.18.36.27.36.35.35.47.32.59.28.73.21.88.14 1.04.05 1.23-.06 1.23-.16 1.04-.24.86-.32.71-.36.57-.4.45-.42.33-.42.24-.4.16-.36.09-.32.05-.24.02-.16-.01h-8.22v.82h5.84l.01 2.76.02.36-.05.34-.11.31-.17.29-.25.25-.31.24-.38.2-.44.17-.51.15-.58.13-.64.09-.71.07-.77.04-.84.01-1.27-.04-1.07-.14-.9-.2-.73-.25-.59-.3-.45-.33-.34-.34-.25-.34-.16-.33-.1-.3-.04-.25-.02-.2.01-.13v-5.34l.05-.64.13-.54.21-.46.26-.38.3-.32.33-.24.35-.2.35-.14.33-.1.3-.06.26-.04.21-.02.13-.01h5.84l.69-.05.59-.14.5-.21.41-.28.33-.32.27-.35.2-.36.15-.36.1-.35.07-.32.04-.28.02-.21V6.07h2.09l.14.01zm-6.47 14.25l-.23.33-.08.41.08.41.23.33.33.23.41.08.41-.08.33-.23.23-.33.08-.41-.08-.41-.23-.33-.33-.23-.41-.08-.41.08z"/></svg>
  <text class="label" x="810" y="500">Stream Processor</text>
  <text class="small" x="810" y="524">Python consumer worker</text>
  <text class="tiny" x="810" y="544">enriches events</text>
  <text class="tiny" x="810" y="562">logs recommendations</text>

  <rect class="api" x="1120" y="465" width="220" height="110" rx="8"/>
  <rect class="icon-bg" x="1132" y="483" width="46" height="46" rx="10"/>
  <svg x="1141" y="492" width="28" height="28" viewBox="0 0 24 24" aria-hidden="true" fill="#009688"><path d="M12 .0387C5.3729.0384.0003 5.3931 0 11.9988c-.001 6.6066 5.372 11.9628 12 11.9625 6.628.0003 12.001-5.3559 12-11.9625-.0003-6.6057-5.3729-11.9604-12-11.96m-.829 5.4153h7.55l-7.5805 5.3284h5.1828L5.279 18.5436q2.9466-6.5444 5.892-13.0896"/></svg>
  <text class="label" x="1190" y="500">Recommender API</text>
  <text class="small" x="1190" y="524">FastAPI service</text>
  <text class="tiny" x="1190" y="544">/user_embeddings</text>
  <text class="tiny" x="1190" y="562">item + user endpoints</text>

  <rect class="storage" x="740" y="635" width="225" height="110" rx="8"/>
  <rect class="icon-bg" x="752" y="653" width="46" height="46" rx="10"/>
  <svg x="761" y="662" width="28" height="28" viewBox="0 0 24 24" aria-hidden="true" fill="#C72E49"><path d="M13.2072.006c-.6216-.0478-1.2.1943-1.6211.582a2.15 2.15 0 0 0-.0938 3.0352l3.4082 3.5507a3.042 3.042 0 0 1-.664 4.6875l-.463.2383V7.2853a15.4198 15.4198 0 0 0-8.0174 10.4862v.0176l6.5487-3.3281v7.621L13.7794 24V13.6817l.8965-.4629a4.4432 4.4432 0 0 0 1.2207-7.0292l-3.371-3.5254a.7489.7489 0 0 1 .037-1.0547.7522.7522 0 0 1 1.0567.0371l.4668.4863-.006.0059 4.0704 4.2441a.0566.0566 0 0 0 .082 0 .06.06 0 0 0 0-.0703l-3.1406-5.1425-.1484.1425.1484-.1445C14.4945.3926 13.8287.0538 13.2072.006Zm-.9024 9.8652v2.9941l-4.1523 2.1484a13.9787 13.9787 0 0 1 2.7676-3.9277 14.1784 14.1784 0 0 1 1.3847-1.2148z"/></svg>
  <text class="label" x="810" y="670">MinIO Output</text>
  <text class="small" x="810" y="694">bucket: recommendations</text>
  <text class="tiny" x="810" y="714">year/month/day/hour</text>
  <text class="tiny" x="810" y="732">enriched JSON records</text>

  <rect class="storage" x="1120" y="635" width="220" height="110" rx="8"/>
  <rect class="icon-bg" x="1132" y="653" width="46" height="46" rx="10"/>
  <svg x="1141" y="662" width="28" height="28" viewBox="0 0 24 24" aria-hidden="true" fill="#4169E1"><path d="M23.5594 14.7228a.5269.5269 0 0 0-.0563-.1191c-.139-.2632-.4768-.3418-1.0074-.2321-1.6533.3411-2.2935.1312-2.5256-.0191 1.342-2.0482 2.445-4.522 3.0411-6.8297.2714-1.0507.7982-3.5237.1222-4.7316a1.5641 1.5641 0 0 0-.1509-.235C21.6931.9086 19.8007.0248 17.5099.0005c-1.4947-.0158-2.7705.3461-3.1161.4794a9.449 9.449 0 0 0-.5159-.0816 8.044 8.044 0 0 0-1.3114-.1278c-1.1822-.0184-2.2038.2642-3.0498.8406-.8573-.3211-4.7888-1.645-7.2219.0788C.9359 2.1526.3086 3.8733.4302 6.3043c.0409.818.5069 3.334 1.2423 5.7436.4598 1.5065.9387 2.7019 1.4334 3.582.553.9942 1.1259 1.5933 1.7143 1.7895.4474.1491 1.1327.1441 1.8581-.7279.8012-.9635 1.5903-1.8258 1.9446-2.2069.4351.2355.9064.3625 1.39.3772a.0569.0569 0 0 0 .0004.0041 11.0312 11.0312 0 0 0-.2472.3054c-.3389.4302-.4094.5197-1.5002.7443-.3102.064-1.1344.2339-1.1464.8115-.0025.1224.0329.2309.0919.3268.2269.4231.9216.6097 1.015.6331 1.3345.3335 2.5044.092 3.3714-.6787-.017 2.231.0775 4.4174.3454 5.0874.2212.5529.7618 1.9045 2.4692 1.9043.2505 0 .5263-.0291.8296-.0941 1.7819-.3821 2.5557-1.1696 2.855-2.9059.1503-.8707.4016-2.8753.5388-4.1012.0169-.0703.0357-.1207.057-.1362.0007-.0005.0697-.0471.4272.0307a.3673.3673 0 0 0 .0443.0068l.2539.0223.0149.001c.8468.0384 1.9114-.1426 2.5312-.4308.6438-.2988 1.8057-1.0323 1.5951-1.6698zM2.371 11.8765c-.7435-2.4358-1.1779-4.8851-1.2123-5.5719-.1086-2.1714.4171-3.6829 1.5623-4.4927 1.8367-1.2986 4.8398-.5408 6.108-.13-.0032.0032-.0066.0061-.0098.0094-2.0238 2.044-1.9758 5.536-1.9708 5.7495-.0002.0823.0066.1989.0162.3593.0348.5873.0996 1.6804-.0735 2.9184-.1609 1.1504.1937 2.2764.9728 3.0892.0806.0841.1648.1631.2518.2374-.3468.3714-1.1004 1.1926-1.9025 2.1576-.5677.6825-.9597.5517-1.0886.5087-.3919-.1307-.813-.5871-1.2381-1.3223-.4796-.839-.9635-2.0317-1.4155-3.5126zm6.0072 5.0871c-.1711-.0428-.3271-.1132-.4322-.1772.0889-.0394.2374-.0902.4833-.1409 1.2833-.2641 1.4815-.4506 1.9143-1.0002.0992-.126.2116-.2687.3673-.4426a.3549.3549 0 0 0 .0737-.1298c.1708-.1513.2724-.1099.4369-.0417.156.0646.3078.26.3695.4752.0291.1016.0619.2945-.0452.4444-.9043 1.2658-2.2216 1.2494-3.1676 1.0128zm2.094-3.988-.0525.141c-.133.3566-.2567.6881-.3334 1.003-.6674-.0021-1.3168-.2872-1.8105-.8024-.6279-.6551-.9131-1.5664-.7825-2.5004.1828-1.3079.1153-2.4468.079-3.0586-.005-.0857-.0095-.1607-.0122-.2199.2957-.2621 1.6659-.9962 2.6429-.7724.4459.1022.7176.4057.8305.928.5846 2.7038.0774 3.8307-.3302 4.7363-.084.1866-.1633.3629-.2311.5454zm7.3637 4.5725c-.0169.1768-.0358.376-.0618.5959l-.146.4383a.3547.3547 0 0 0-.0182.1077c-.0059.4747-.054.6489-.115.8693-.0634.2292-.1353.4891-.1794 1.0575-.11 1.4143-.8782 2.2267-2.4172 2.5565-1.5155.3251-1.7843-.4968-2.0212-1.2217a6.5824 6.5824 0 0 0-.0769-.2266c-.2154-.5858-.1911-1.4119-.1574-2.5551.0165-.5612-.0249-1.9013-.3302-2.6462.0044-.2932.0106-.5909.019-.8918a.3529.3529 0 0 0-.0153-.1126 1.4927 1.4927 0 0 0-.0439-.208c-.1226-.4283-.4213-.7866-.7797-.9351-.1424-.059-.4038-.1672-.7178-.0869.067-.276.1831-.5875.309-.9249l.0529-.142c.0595-.16.134-.3257.213-.5012.4265-.9476 1.0106-2.2453.3766-5.1772-.2374-1.0981-1.0304-1.6343-2.2324-1.5098-.7207.0746-1.3799.3654-1.7088.5321a5.6716 5.6716 0 0 0-.1958.1041c.0918-1.1064.4386-3.1741 1.7357-4.4823a4.0306 4.0306 0 0 1 .3033-.276.3532.3532 0 0 0 .1447-.0644c.7524-.5706 1.6945-.8506 2.802-.8325.4091.0067.8017.0339 1.1742.081 1.939.3544 3.2439 1.4468 4.0359 2.3827.8143.9623 1.2552 1.9315 1.4312 2.4543-1.3232-.1346-2.2234.1268-2.6797.779-.9926 1.4189.543 4.1729 1.2811 5.4964.1353.2426.2522.4522.2889.5413.2403.5825.5515.9713.7787 1.2552.0696.087.1372.1714.1885.245-.4008.1155-1.1208.3825-1.0552 1.717-.0123.1563-.0423.4469-.0834.8148-.0461.2077-.0702.4603-.0994.7662zm.8905-1.6211c-.0405-.8316.2691-.9185.5967-1.0105a2.8566 2.8566 0 0 0 .135-.0406 1.202 1.202 0 0 0 .1342.103c.5703.3765 1.5823.4213 3.0068.1344-.2016.1769-.5189.3994-.9533.6011-.4098.1903-1.0957.333-1.7473.3636-.7197.0336-1.0859-.0807-1.1721-.151zm.5695-9.2712c-.0059.3508-.0542.6692-.1054 1.0017-.055.3576-.112.7274-.1264 1.1762-.0142.4368.0404.8909.0932 1.3301.1066.887.216 1.8003-.2075 2.7014a3.5272 3.5272 0 0 1-.1876-.3856c-.0527-.1276-.1669-.3326-.3251-.6162-.6156-1.1041-2.0574-3.6896-1.3193-4.7446.3795-.5427 1.3408-.5661 2.1781-.463zm.2284 7.0137a12.3762 12.3762 0 0 0-.0853-.1074l-.0355-.0444c.7262-1.1995.5842-2.3862.4578-3.4385-.0519-.4318-.1009-.8396-.0885-1.2226.0129-.4061.0666-.7543.1185-1.0911.0639-.415.1288-.8443.1109-1.3505.0134-.0531.0188-.1158.0118-.1902-.0457-.4855-.5999-1.938-1.7294-3.253-.6076-.7073-1.4896-1.4972-2.6889-2.0395.5251-.1066 1.2328-.2035 2.0244-.1859 2.0515.0456 3.6746.8135 4.8242 2.2824a.908.908 0 0 1 .0667.1002c.7231 1.3556-.2762 6.2751-2.9867 10.5405zm-8.8166-6.1162c-.025.1794-.3089.4225-.6211.4225a.5821.5821 0 0 1-.0809-.0056c-.1873-.026-.3765-.144-.5059-.3156-.0458-.0605-.1203-.178-.1055-.2844.0055-.0401.0261-.0985.0925-.1488.1182-.0894.3518-.1226.6096-.0867.3163.0441.6426.1938.6113.4186zm7.9305-.4114c.0111.0792-.049.201-.1531.3102-.0683.0717-.212.1961-.4079.2232a.5456.5456 0 0 1-.075.0052c-.2935 0-.5414-.2344-.5607-.3717-.024-.1765.2641-.3106.5611-.352.297-.0414.6111.0088.6356.1851z"/></svg>
  <text class="label" x="1190" y="670">Postgres + pgvector</text>
  <text class="small" x="1190" y="694">db: recommender</text>
  <text class="tiny" x="1190" y="714">item_emb, user_emb</text>
  <text class="tiny" x="1190" y="732">similarity search</text>

  <path class="arrow" d="M 285 520 L 395 520"/>
  <path class="arrow" d="M 615 520 L 735 520"/>
  <path class="arrow" d="M 965 520 L 1115 520"/>
  <path class="arrow" d="M 465 420 C 388 438, 285 452, 214 462"/>
  <path class="arrow-soft" d="M 852 465 C 800 430, 715 405, 635 395"/>
  <path class="arrow" d="M 1218 580 L 1218 630"/>
  <path class="arrow-soft" d="M 1242 630 L 1242 580"/>
  <path class="arrow" d="M 852 575 L 852 630"/>
  <path class="arrow-soft" d="M 1395 318 L 1395 770 L 1230 770 L 1230 750"/>
  <path class="arrow-soft" d="M 178 465 C 178 385, 160 340, 160 290"/>
  <text class="tiny" x="314" y="493">JSON events</text>
  <text class="tiny" x="647" y="493">consume</text>
  <text class="tiny" x="1012" y="493">HTTP calls</text>
  <text class="tiny" x="300" y="447">user interactions</text>
  <text class="tiny" x="660" y="389">recommendations to app</text>
  <text class="tiny" x="1138" y="604">query vectors</text>
  <text class="tiny" x="1252" y="604">vector results</text>
  <text class="tiny" x="865" y="604">write JSON</text>
  <text class="tiny" x="1265" y="760">load embeddings</text>
  <text class="tiny" x="188" y="379">producer reads catalog data</text>

  <rect class="service" x="70" y="665" width="270" height="80" rx="8"/>
  <text class="label" x="95" y="700">Live Classroom View</text>
  <text class="small" x="95" y="724">docker logs -f stream processor</text>

  <path class="arrow-soft" d="M 740 705 L 345 705"/>

  <text class="small" x="50" y="825">Key idea: batch prepares training data and embeddings; streaming uses those embeddings to produce real-time recommendations.</text>
</svg>
